<svg width="142" height="27" viewBox="0 0 142 27" fill="none" xmlns="http://www.w3.org/2000/svg">
<path d="M16.566 26H11.946L9.9825 13.625L7.8705 26H3.3495L0.396 8.576H3.96L5.775 23.7065L8.2005 10.787H11.8965L14.157 23.7065L15.972 8.576H19.404L16.566 26ZM23.8131 18.476C23.8901 19.664 24.1431 20.6375 24.5721 21.3965C25.0011 22.1445 25.5621 22.6945 26.2551 23.0465C26.9591 23.3985 27.7291 23.5745 28.5651 23.5745C29.4231 23.5745 30.2151 23.4425 30.9411 23.1785C31.6671 22.9145 32.3986 22.5405 33.1356 22.0565L34.7361 24.2675C33.9221 24.9275 32.9706 25.4555 31.8816 25.8515C30.7926 26.2475 29.6266 26.4455 28.3836 26.4455C26.5796 26.4455 25.0506 26.0605 23.7966 25.2905C22.5536 24.5205 21.6076 23.448 20.9586 22.073C20.3096 20.698 19.9851 19.1085 19.9851 17.3045C19.9851 15.5555 20.3041 13.9935 20.9421 12.6185C21.5801 11.2325 22.4931 10.138 23.6811 9.335C24.8691 8.521 26.2881 8.114 27.9381 8.114C29.4891 8.114 30.8201 8.466 31.9311 9.17C33.0531 9.874 33.9166 10.875 34.5216 12.173C35.1376 13.46 35.4456 15.011 35.4456 16.826C35.4456 17.123 35.4346 17.42 35.4126 17.717C35.4016 18.003 35.3851 18.256 35.3631 18.476H23.8131ZM27.9711 10.853C26.8161 10.853 25.8591 11.2655 25.1001 12.0905C24.3521 12.9155 23.9176 14.2025 23.7966 15.9515H31.8651C31.8321 14.3125 31.4801 13.053 30.8091 12.173C30.1491 11.293 29.2031 10.853 27.9711 10.853ZM42.2472 10.655C42.8522 9.863 43.5562 9.2415 44.3592 8.7905C45.1732 8.3395 46.0642 8.114 47.0322 8.114C48.5612 8.114 49.7987 8.4935 50.7447 9.2525C51.7017 10.0005 52.4002 11.062 52.8402 12.437C53.2912 13.801 53.5167 15.407 53.5167 17.255C53.5167 19.026 53.2527 20.6045 52.7247 21.9905C52.1967 23.3765 51.4157 24.4655 50.3817 25.2575C49.3587 26.0495 48.0937 26.4455 46.5867 26.4455C44.6397 26.4455 43.1107 25.725 41.9997 24.284L41.8017 26H38.5512V1.58L42.2472 1.1675V10.655ZM45.6627 23.624C46.9167 23.624 47.8847 23.1125 48.5667 22.0895C49.2597 21.0665 49.6062 19.4605 49.6062 17.2715C49.6062 15.7865 49.4687 14.582 49.1937 13.658C48.9187 12.723 48.5117 12.041 47.9727 11.612C47.4447 11.183 46.7957 10.9685 46.0257 10.9685C45.2007 10.9685 44.4747 11.216 43.8477 11.711C43.2207 12.206 42.6872 12.789 42.2472 13.46V21.611C42.6542 22.238 43.1437 22.733 43.7157 23.096C44.2987 23.448 44.9477 23.624 45.6627 23.624Z" fill="#0076F5"/>
<path d="M60.0543 10.655C60.6593 9.863 61.3633 9.2415 62.1663 8.7905C62.9803 8.3395 63.8713 8.114 64.8393 8.114C66.3683 8.114 67.6058 8.4935 68.5518 9.2525C69.5088 10.0005 70.2073 11.062 70.6473 12.437C71.0983 13.801 71.3238 15.407 71.3238 17.255C71.3238 19.026 71.0598 20.6045 70.5318 21.9905C70.0038 23.3765 69.2228 24.4655 68.1888 25.2575C67.1658 26.0495 65.9008 26.4455 64.3938 26.4455C62.4468 26.4455 60.9178 25.725 59.8068 24.284L59.6088 26H56.3583V1.58L60.0543 1.1675V10.655ZM63.4698 23.624C64.7238 23.624 65.6918 23.1125 66.3738 22.0895C67.0668 21.0665 67.4133 19.4605 67.4133 17.2715C67.4133 15.7865 67.2758 14.582 67.0008 13.658C66.7258 12.723 66.3188 12.041 65.7798 11.612C65.2518 11.183 64.6028 10.9685 63.8328 10.9685C63.0078 10.9685 62.2818 11.216 61.6548 11.711C61.0278 12.206 60.4943 12.789 60.0543 13.46V21.611C60.4613 22.238 60.9508 22.733 61.5228 23.096C62.1058 23.448 62.7548 23.624 63.4698 23.624ZM74.3304 26V23.36H76.8879V11.1995H74.3304V8.576H79.7094L80.3859 12.6185C81.0349 11.1555 81.8379 10.0445 82.7949 9.2855C83.7629 8.5155 85.0059 8.1305 86.5239 8.1305C87.0409 8.1305 87.5029 8.1745 87.9099 8.2625C88.3279 8.3395 88.7404 8.444 89.1474 8.576L88.0419 11.744C87.6899 11.645 87.3599 11.5735 87.0519 11.5295C86.7439 11.4745 86.4029 11.447 86.0289 11.447C84.7639 11.447 83.6694 11.92 82.7454 12.866C81.8324 13.812 81.1119 15.154 80.5839 16.892V23.36H84.0984V26H74.3304ZM85.8804 14.9945V10.7045L86.3424 8.576H89.1474L88.5204 14.9945H85.8804ZM105.288 21.7265C105.288 22.4085 105.393 22.909 105.602 23.228C105.811 23.536 106.146 23.767 106.608 23.921L105.783 26.429C104.925 26.33 104.188 26.0935 103.572 25.7195C102.956 25.3455 102.489 24.779 102.17 24.02C101.532 24.823 100.723 25.428 99.744 25.835C98.765 26.242 97.72 26.4455 96.609 26.4455C94.849 26.4455 93.452 25.9505 92.418 24.9605C91.395 23.9595 90.8835 22.6505 90.8835 21.0335C90.8835 19.1965 91.5985 17.783 93.0285 16.793C94.4585 15.803 96.5045 15.308 99.1665 15.308H101.658V14.1695C101.658 13.0475 101.317 12.239 100.635 11.744C99.964 11.249 99.0125 11.0015 97.7805 11.0015C97.2085 11.0015 96.5155 11.0785 95.7015 11.2325C94.8875 11.3755 94.035 11.601 93.144 11.909L92.2365 9.302C93.3255 8.895 94.3925 8.598 95.4375 8.411C96.4825 8.213 97.4505 8.114 98.3415 8.114C100.674 8.114 102.412 8.631 103.556 9.665C104.711 10.699 105.288 12.129 105.288 13.955V21.7265ZM97.731 23.723C98.479 23.723 99.2105 23.525 99.9255 23.129C100.641 22.733 101.218 22.1775 101.658 21.4625V17.618H99.612C97.874 17.618 96.631 17.9095 95.883 18.4925C95.135 19.0645 94.761 19.8565 94.761 20.8685C94.761 21.7925 95.0085 22.502 95.5035 22.997C96.0095 23.481 96.752 23.723 97.731 23.723ZM119.3 8.576V23.294H124.036V26H110.39V23.294H115.604V11.282H110.555V8.576H119.3ZM116.726 0.0454988C117.452 0.0454988 118.035 0.265499 118.475 0.705498C118.926 1.1455 119.152 1.6955 119.152 2.3555C119.152 3.0155 118.926 3.571 118.475 4.022C118.035 4.473 117.452 4.6985 116.726 4.6985C116.022 4.6985 115.445 4.473 114.994 4.022C114.543 3.571 114.317 3.0155 114.317 2.3555C114.317 1.6955 114.543 1.1455 114.994 0.705498C115.445 0.265499 116.022 0.0454988 116.726 0.0454988ZM127.587 26V8.576H130.771L131.052 10.8365C131.778 9.9455 132.636 9.269 133.626 8.807C134.616 8.345 135.633 8.114 136.678 8.114C138.306 8.114 139.522 8.5705 140.325 9.4835C141.139 10.3855 141.546 11.656 141.546 13.295V26H137.85V15.1265C137.85 14.1145 137.789 13.3005 137.668 12.6845C137.547 12.0685 137.305 11.623 136.942 11.348C136.59 11.073 136.062 10.9355 135.358 10.9355C134.797 10.9355 134.264 11.0565 133.758 11.2985C133.252 11.5405 132.79 11.8595 132.372 12.2555C131.954 12.6405 131.591 13.053 131.283 13.493V26H127.587Z" fill="#1B1A18"/>
</svg>
